<svg width="20" height="20" viewBox="0 0 20 20" fill="none" xmlns="http://www.w3.org/2000/svg">
<g clip-path="url(#clip0_159_4)">
<path d="M15.8473 17.4845C15.8473 17.7974 15.5936 18.0511 15.2806 18.0511H4.77795C4.46499 18.0511 4.21126 17.7974 4.21126 17.4845V16.2755C4.21126 15.9626 4.46499 15.7088 4.77795 15.7088H15.2806C15.5936 15.7088 15.8473 15.9626 15.8473 16.2755V17.4845ZM20 3.07081C20 2.45213 19.4968 1.94891 18.8781 1.94891C18.2594 1.94891 17.7563 2.45213 17.7563 3.07081C17.7563 3.38219 17.884 3.66417 18.0895 3.86758L15.568 8.88512L15.5434 4.03668C15.8743 3.84136 16.0974 3.48207 16.0974 3.07081C16.0974 2.45213 15.5942 1.94891 14.9755 1.94891C14.3568 1.94891 13.8536 2.45213 13.8536 3.07081C13.8536 3.4455 14.0389 3.77698 14.3218 3.98076L12.515 9.4568L10.6765 3.98333C10.9614 3.7797 11.1482 3.44702 11.1482 3.07081C11.1482 2.45213 10.645 1.94891 10.0263 1.94891C9.40766 1.94891 8.90444 2.45213 8.90444 3.07081C8.90444 3.44702 9.09122 3.77978 9.37623 3.98341L7.53751 9.46473L5.72969 3.98174C6.01341 3.77796 6.19921 3.44603 6.19921 3.07081C6.19921 2.45213 5.69599 1.94891 5.07732 1.94891C4.45864 1.94891 3.9555 2.45213 3.9555 3.07081C3.9555 3.48207 4.17862 3.84143 4.50949 4.03668L4.48486 8.89245L1.93853 3.83758C2.1272 3.63674 2.24371 3.36745 2.24371 3.07081C2.24371 2.45213 1.74049 1.94891 1.12182 1.94891C0.503145 1.94891 0 2.45213 0 3.07081C0 3.58272 0.345001 4.01469 0.814447 4.1488L4.50911 13.9814C4.59215 14.2024 4.80349 14.3488 5.03961 14.3488H15.0134C15.2496 14.3488 15.461 14.2023 15.5439 13.9811L19.2371 4.13271C19.6799 3.98258 20 3.56383 20 3.07081Z" fill="white"/>
</g>
<defs>
<clipPath id="clip0_159_4">
<rect width="20" height="20" fill="white"/>
</clipPath>
</defs>
</svg>
